<svg width="79" height="30" viewBox="0 0 79 30" fill="none" xmlns="http://www.w3.org/2000/svg">
<path d="M19.8245 20.0407H4.04427C4.43641 23.6894 7.06802 25.8706 9.9335 25.8706C12.0927 25.8706 14.292 25.2358 15.6645 22.4605L19.3142 23.2527C17.7055 27.3763 14.2494 29.4382 9.93114 29.4382C4.63248 29.4405 0 25.3169 0 19.0909C0 12.8243 4.59233 8.66016 10.0894 8.66016C15.3101 8.66016 19.6284 12.705 19.8245 18.6136V20.0407ZM4.16239 17.1079H15.6267C14.9983 13.8958 12.7612 12.3089 10.0918 12.3089C7.53812 12.3089 4.7884 13.934 4.16239 17.1079Z" fill="white"/>
<path d="M43.4971 28.8848H39.3749V26.6631C37.648 28.4075 35.2526 29.4384 32.3092 29.4384C27.2444 29.4384 22.6521 25.2742 22.6521 19.0482C22.6521 12.8628 27.2444 8.65803 32.3092 8.65803C35.2526 8.65803 37.648 9.68893 39.3749 11.4739V0.332031H43.4971V28.8848ZM39.3749 19.0506C39.3749 14.927 36.233 12.3092 32.9754 12.3092C29.4414 12.3092 26.6538 14.927 26.6538 19.0506C26.6538 23.2148 29.4414 25.7921 32.9754 25.7921C36.233 25.7921 39.3749 23.2148 39.3749 19.0506Z" fill="white"/>
<path d="M54.6143 2.9093C54.6143 4.3769 53.5158 5.44838 52.0228 5.44838C50.492 5.44838 49.3936 4.3769 49.3936 2.9093C49.3936 1.52044 50.492 0.332031 52.0228 0.332031C53.5158 0.332031 54.6143 1.52282 54.6143 2.9093Z" fill="white"/>
<path d="M54.0447 9.05908H49.9626V28.8873H54.0447V9.05908Z" fill="white"/>
<path d="M59.0974 9.05908H63.8102L78.7258 28.8849H74.0154L59.0974 9.05908Z" fill="white"/>
<path d="M74.8005 14.6097L78.7267 9.05908H70.8767L74.8005 14.6097Z" fill="white"/>
<path d="M66.9497 28.8851H59.0974L63.0236 23.3345L66.9497 28.8851Z" fill="white"/>
</svg>
